<?xml version="1.0" ?><svg viewBox="0 0 96 96" xmlns="http://www.w3.org/2000/svg"><title/><g data-name="Layer 2" id="Layer_2"><g data-name="Layer 2" id="Layer_2-2"><path d="M60.69,26H34.51a8.81,8.81,0,0,0-8.8,8.8V61a8.81,8.81,0,0,0,8.8,8.8H60.69a8.81,8.81,0,0,0,8.8-8.8V34.83A8.81,8.81,0,0,0,60.69,26ZM47.59,63.92a16,16,0,1,1,16-16A16,16,0,0,1,47.59,63.92Zm15.71-29a2.58,2.58,0,1,1,2.58-2.58A2.57,2.57,0,0,1,63.3,34.88Z"/><path d="M47.59,35.21A12.69,12.69,0,1,0,60.28,47.91,12.7,12.7,0,0,0,47.59,35.21Z"/><path d="M48,0A48,48,0,1,0,96,48,48,48,0,0,0,48,0ZM72.43,61A11.77,11.77,0,0,1,60.69,72.75H34.51A11.78,11.78,0,0,1,22.77,61V34.83A11.77,11.77,0,0,1,34.51,23.09H60.69A11.75,11.75,0,0,1,72.43,34.83Z"/></g></g></svg>