<?xml version="1.0" ?><svg viewBox="0 0 96 96" xmlns="http://www.w3.org/2000/svg"><defs><style>.cls-1{fill-rule:evenodd;}</style></defs><title/><g data-name="Layer 2" id="Layer_2"><g data-name="Layer 2" id="Layer_2-2"><polygon class="cls-1" points="56.86 47.38 43.18 54.76 43.18 39.95 49.37 43.33 56.86 47.38"/><polygon class="cls-1" points="56.86 47.38 43.18 54.76 43.18 39.95 49.37 43.33 56.86 47.38"/><polygon points="49.37 43.33 56.86 47.38 43.18 54.76 43.18 39.95 49.37 43.33"/><path d="M48,0A48,48,0,1,0,96,48,48,48,0,0,0,48,0ZM73.69,49.93a84.26,84.26,0,0,1-.49,8.5s-.52,3.65-2,5.27a7.15,7.15,0,0,1-5,2.25c-7.08.49-17.69.55-17.69.55S35.28,66.36,31.25,66c-1.15-.22-3.67-.14-5.59-2.25-1.51-1.62-2-5.27-2-5.27a79.47,79.47,0,0,1-.52-8.5v-4a81,81,0,0,1,.52-8.5s.52-3.64,2-5.23a7.18,7.18,0,0,1,5.07-2.25c7.07-.52,17.65-.52,17.65-.52h.06s10.61,0,17.69.52a7.24,7.24,0,0,1,5,2.25c1.51,1.59,2,5.23,2,5.23s.49,4.28.49,8.5Z"/></g></g></svg>